Coordinates
version=1
nRows=29
nColumns=30
inDegrees=yes

Units are S.I. units (second, meters, Newtons, ...)
Angles are in degrees.

endheader
time	floatyaw	floatroll	floatpitch	floatx	floaty	floatz	pro_sup_l	deviation_l	flexion_l	cmc_flexion_l	cmc_abduction_l	mp_flexion_l	ip_flexion_l	2mcp_flexion_l	2mcp_abduction_l	2pm_flexion_l	2md_flexion_l	3mcp_flexion_l	3mcp_abduction_l	3pm_flexion_l	3md_flexion_l	4mcp_flexion_l	4mcp_abduction_l	4pm_flexion_l	4md_flexion_l	5mcp_flexion_l	5mcp_abduction_l	5pm_flexion_l	5md_flexion_l
0.005000	-160.147433	-5.066637	-73.570646	-0.053552	-0.102816	-0.086968	127.745586	37.479352	-20.951728	13.980469	42.247570	-16.977275	-51.282960	14.814252	8.013796	56.145140	44.187847	34.431278	6.565761	51.762962	41.409294	34.552867	-4.830963	53.208994	53.522674	11.961662	-13.919566	63.634814	62.307045
0.015000	-160.147433	-5.066637	-73.570646	-0.053626	-0.099143	-0.086514	127.490757	37.891608	-21.260815	13.974793	42.254634	-16.440917	-50.527522	16.085220	8.272002	55.497097	43.465694	35.554645	6.634381	50.804036	41.281148	35.746221	-4.867757	52.492384	53.817057	12.992507	-14.002126	63.425005	62.587078
0.025000	-160.147433	-5.066637	-73.570646	-0.053722	-0.095075	-0.086135	127.279311	38.328735	-21.597109	14.055712	42.294715	-15.777507	-49.611858	17.467412	8.526611	54.675682	42.709869	36.783166	6.687848	49.581004	41.117342	37.010756	-4.896069	51.554178	54.018925	14.122469	-14.039966	62.989960	62.848201
0.035000	-160.147433	-5.066637	-73.570646	-0.053794	-0.091191	-0.085801	127.080177	38.762637	-21.841616	14.148918	42.393974	-15.075920	-48.829811	18.724809	8.738644	53.860583	42.053711	37.944394	6.711717	48.276472	40.985229	38.224690	-4.913353	50.414652	54.204094	15.252092	-14.020148	62.297583	63.118831
0.045000	-160.147433	-5.066637	-73.570646	-0.053780	-0.088049	-0.085509	126.865793	39.126248	-21.906005	14.192497	42.552780	-14.442643	-48.420385	19.641093	8.879470	53.234479	41.596454	38.863536	6.701450	47.128254	40.926396	39.246603	-4.919224	49.195862	54.421054	16.240365	-13.949523	61.425506	63.408510
0.055000	-160.147433	-5.066637	-73.570646	-0.053622	-0.085995	-0.085281	126.614346	39.342557	-21.763847	14.150208	42.745741	-13.960385	-48.458399	20.108284	8.941157	52.895289	41.368737	39.423721	6.664533	46.324017	40.946298	39.956607	-4.916170	48.073784	54.680410	16.943467	-13.849771	60.527744	63.703254
0.065000	-160.147433	-5.066637	-73.570646	-0.053287	-0.085066	-0.085157	126.316496	39.361045	-21.452459	14.014314	42.933050	-13.657679	-48.827205	20.160840	8.938160	52.819230	41.331941	39.605124	6.616782	45.923024	41.017954	40.297661	-4.909103	47.201459	54.956303	17.267194	-13.746859	59.763366	63.967675
0.075000	-160.147433	-5.066637	-73.570646	-0.052792	-0.085014	-0.085177	125.980826	39.180603	-21.046591	13.800703	43.078595	-13.506570	-49.293187	19.940661	8.899853	52.892954	41.409031	39.482890	6.574795	45.850066	41.099028	40.294936	-4.903648	46.649015	55.203206	17.204379	-13.660696	59.230623	64.159529
0.085000	-160.147433	-5.066637	-73.570646	-0.052195	-0.085442	-0.085358	125.631094	38.848455	-20.621236	13.540099	43.164091	-13.446328	-49.627783	19.621947	8.858660	52.982551	41.523088	39.187660	6.549015	45.951392	41.151585	40.041474	-4.904113	46.389481	55.378985	16.835165	-13.599754	58.940441	64.248911
0.095000	-160.147433	-5.066637	-73.570646	-0.051579	-0.085962	-0.085683	125.294201	38.439144	-20.222522	13.266765	43.191582	-13.415294	-49.697269	19.342185	8.839567	52.990847	41.620277	38.852313	6.540875	46.067100	41.153145	39.658248	-4.912219	46.327139	55.459179	16.290286	-13.561391	58.832729	64.228021
0.105000	-160.147433	-5.066637	-73.570646	-0.051015	-0.086309	-0.086098	124.984871	38.026220	-19.856293	13.007064	43.175425	-13.372820	-49.480864	19.169046	8.854272	52.877906	41.671856	38.570323	6.544422	46.081492	41.095823	39.249814	-4.927064	46.344317	55.436079	15.698039	-13.535496	58.815288	64.106189
0.115000	-160.147433	-5.066637	-73.570646	-0.050540	-0.086382	-0.086535	124.695947	37.659633	-19.494268	12.773097	43.130833	-13.304958	-49.035005	19.104988	8.900750	52.651030	41.665335	38.379090	6.550441	45.941247	40.979188	38.875972	-4.946108	46.342436	55.310122	15.141762	-13.508906	58.802184	63.898200
0.125000	-160.147433	-5.066637	-73.570646	-0.050147	-0.086206	-0.086929	124.400452	37.356527	-19.092562	12.565318	43.065935	-13.218569	-48.445658	19.113304	8.967516	52.343651	41.596961	38.267139	6.550621	45.651010	40.804884	38.548294	-4.966629	46.264789	55.085451	14.645122	-13.469620	58.738871	63.617312
0.135000	-160.147433	-5.066637	-73.570646	-0.049805	-0.085873	-0.087245	124.065182	37.105849	-18.614783	12.381253	42.980494	-13.131441	-47.796092	19.146958	9.040444	51.997134	41.470096	38.195191	6.540277	45.257737	40.576562	38.246637	-4.986933	46.099879	54.773411	14.185607	-13.410605	58.611480	63.275806
0.145000	-160.147433	-5.066637	-73.570646	-0.049480	-0.085487	-0.087480	123.668947	36.881400	-18.050549	12.221823	42.870449	-13.062785	-47.152461	19.168859	9.108480	51.648970	41.296264	38.119868	6.519206	44.828713	40.302692	37.942752	-5.006626	45.870140	54.397375	13.723131	-13.332295	58.441845	62.887039
0.155000	-160.147433	-5.066637	-73.570646	-0.049148	-0.085124	-0.087658	123.215467	36.656010	-17.421707	12.089383	42.734751	-13.025567	-46.558139	19.160967	9.165391	51.325338	41.093770	38.012057	6.490874	44.426264	39.997731	37.618663	-5.025847	45.613266	53.990610	13.227070	-13.242341	58.271383	62.463453
0.165000	-160.147433	-5.066637	-73.570646	-0.048805	-0.084822	-0.087820	122.733457	36.411448	-16.773868	11.980097	42.580029	-13.022132	-46.031430	19.124253	9.207945	51.036862	40.882631	37.865650	6.460458	44.086162	39.679933	37.273633	-5.044208	45.363874	53.586571	12.690360	-13.151985	58.139621	62.012717
0.175000	-160.147433	-5.066637	-73.570646	-0.048456	-0.084585	-0.088001	122.263625	36.142145	-16.157701	11.878931	42.419874	-13.044823	-45.567418	19.072488	9.233542	50.778858	40.678952	37.695537	6.432514	43.808897	39.367671	36.920488	-5.060472	45.141720	53.208784	12.128308	-13.070426	58.065557	61.538631
0.185000	-160.147433	-5.066637	-73.570646	-0.048110	-0.084401	-0.088219	121.840186	35.853714	-15.609264	11.763306	42.269017	-13.081357	-45.145686	19.022939	9.239878	50.537156	40.492528	37.527165	6.409267	43.567774	39.076877	36.576642	-5.073338	44.948951	52.867681	11.567500	-13.000270	58.039655	61.048813
0.195000	-160.147433	-5.066637	-73.570646	-0.047780	-0.084248	-0.088472	121.477631	35.558512	-15.138769	11.614281	42.136125	-13.122132	-44.742943	18.987431	9.226806	50.297786	40.328237	37.382960	6.390282	43.328876	38.819840	36.255739	-5.082566	44.775430	52.564664	11.032802	-12.937156	58.030790	60.562297
0.205000	-160.147433	-5.066637	-73.570646	-0.047475	-0.084105	-0.088743	121.169259	35.270510	-14.732288	11.428194	42.019761	-13.165869	-44.346461	18.966757	9.198555	50.056298	40.188566	37.271536	6.373540	43.072225	38.603403	35.962860	-5.089394	44.609413	52.297078	10.537807	-12.874000	58.006206	60.107133
0.215000	-160.147433	-5.066637	-73.570646	-0.047202	-0.083961	-0.089008	120.895964	35.001138	-14.363692	11.220811	41.909610	-13.220952	-43.962020	18.950103	9.164076	49.822136	40.074389	37.183961	6.357061	42.803686	38.425745	35.693255	-5.095867	44.448977	52.058444	10.080460	-12.806629	57.954334	59.705817
0.225000	-160.147433	-5.066637	-73.570646	-0.046966	-0.083810	-0.089248	120.638321	34.756993	-14.009362	11.020628	41.791678	-13.301361	-43.610920	18.919757	9.134654	49.615368	39.983626	37.098743	6.339953	42.551889	38.274217	35.434362	-5.103658	44.307537	51.835144	9.644731	-12.736494	57.895987	59.358391
0.235000	-160.147433	-5.066637	-73.570646	-0.046765	-0.083659	-0.089454	120.385113	34.539491	-13.658416	10.855181	41.654465	-13.418702	-43.316511	18.859709	9.119878	49.456896	39.909795	36.993633	6.322339	42.351984	38.127894	35.171485	-5.113253	44.208436	51.605887	9.208679	-12.668826	57.875398	59.037252
0.245000	-160.147433	-5.066637	-73.570646	-0.046592	-0.083519	-0.089626	120.135375	34.345866	-13.315029	10.738833	41.493490	-13.574829	-43.088929	18.764252	9.124144	49.357608	39.842887	36.858251	6.304594	42.225962	37.965470	34.895684	-5.123942	44.171018	51.348218	8.755958	-12.608446	57.936747	58.699326
0.255000	-160.147433	-5.066637	-73.570646	-0.046437	-0.083401	-0.089771	119.895193	34.170801	-12.993834	10.668964	41.312809	-13.760027	-42.919054	18.641686	9.145449	49.312963	39.773012	36.700045	6.286809	42.171600	37.774646	34.609641	-5.134466	44.197536	51.050000	8.284333	-12.556837	58.101859	58.308182
0.265000	-160.147433	-5.066637	-73.570646	-0.046289	-0.083317	-0.089898	119.672498	34.008180	-12.711813	10.631037	41.123245	-13.957656	-42.785390	18.510996	9.176877	49.305262	39.694737	36.540167	6.269026	42.165229	37.557695	34.327649	-5.143835	44.269361	50.719330	7.806366	-12.512431	58.361397	57.852489
0.275000	-160.147433	-5.066637	-73.570646	-0.046145	-0.083269	-0.090020	119.472691	33.852714	-12.480492	10.607160	40.938327	-14.151146	-42.667172	18.394053	9.209851	49.310358	39.609149	36.402748	6.251941	42.173334	37.330593	34.069727	-5.151929	44.353533	50.386559	7.343096	-12.473096	58.680314	57.351256
0.285000	-160.147433	-5.066637	-73.570646	-0.046005	-0.083252	-0.090142	119.296442	33.701203	-12.301294	10.582367	40.769788	-14.328708	-42.554003	18.308035	9.237477	49.304440	39.522462	36.304495	6.237192	42.164329	37.117002	33.853300	-5.159583	44.414449	50.096012	6.915471	-12.438230	59.010696	56.845028
